<mxfile host="app.diagrams.net" agent="Mozilla/5.0 (Windows NT 10.0; Win64; x64) AppleWebKit/537.36 (KHTML, like Gecko) Chrome/129.0.0.0 Safari/537.36" version="24.7.17">
  <diagram name="第 1 页" id="HkHRna3h8YCEEfz4sZrn">
    <mxGraphModel dx="1050" dy="522" grid="1" gridSize="10" guides="1" tooltips="1" connect="1" arrows="1" fold="1" page="1" pageScale="1" pageWidth="100000" pageHeight="150000" math="0" shadow="0">
      <root>
        <mxCell id="0" />
        <mxCell id="1" parent="0" />
        <mxCell id="q2QqDwBXJJ01Gyk50l-t-1" value="&lt;font style=&quot;font-size: 20px;&quot;&gt;0&lt;/font&gt;" style="ellipse;whiteSpace=wrap;html=1;aspect=fixed;" vertex="1" parent="1">
          <mxGeometry x="60" y="470" width="50" height="50" as="geometry" />
        </mxCell>
        <mxCell id="q2QqDwBXJJ01Gyk50l-t-2" value="&lt;font style=&quot;font-size: 20px;&quot;&gt;1&lt;/font&gt;" style="ellipse;whiteSpace=wrap;html=1;aspect=fixed;" vertex="1" parent="1">
          <mxGeometry x="178" y="470" width="50" height="50" as="geometry" />
        </mxCell>
        <mxCell id="q2QqDwBXJJ01Gyk50l-t-3" value="&lt;font style=&quot;font-size: 20px;&quot;&gt;2&lt;/font&gt;" style="ellipse;whiteSpace=wrap;html=1;aspect=fixed;" vertex="1" parent="1">
          <mxGeometry x="296" y="470" width="50" height="50" as="geometry" />
        </mxCell>
        <mxCell id="q2QqDwBXJJ01Gyk50l-t-4" value="&lt;font style=&quot;font-size: 20px;&quot;&gt;3&lt;/font&gt;" style="ellipse;whiteSpace=wrap;html=1;aspect=fixed;" vertex="1" parent="1">
          <mxGeometry x="414" y="470" width="50" height="50" as="geometry" />
        </mxCell>
        <mxCell id="q2QqDwBXJJ01Gyk50l-t-5" value="&lt;font style=&quot;font-size: 20px;&quot;&gt;4&lt;/font&gt;" style="ellipse;whiteSpace=wrap;html=1;aspect=fixed;" vertex="1" parent="1">
          <mxGeometry x="910" y="510" width="50" height="50" as="geometry" />
        </mxCell>
        <mxCell id="q2QqDwBXJJ01Gyk50l-t-8" value="&lt;font style=&quot;font-size: 20px;&quot;&gt;首先对于并查集，新建一个数组，数组的值为其小标，表示该节点的祖先节点就是其本身&lt;/font&gt;&lt;div style=&quot;font-size: 20px;&quot;&gt;&lt;font style=&quot;font-size: 20px;&quot;&gt;int[ ] f=new int[n];&amp;nbsp;&lt;/font&gt;&lt;/div&gt;&lt;div style=&quot;font-size: 20px;&quot;&gt;&lt;font style=&quot;font-size: 20px;&quot;&gt;for(int i=0;i&amp;lt;n;i++){&lt;/font&gt;&lt;/div&gt;&lt;div style=&quot;font-size: 20px;&quot;&gt;&lt;font style=&quot;font-size: 20px;&quot;&gt;f[i]=i;&lt;/font&gt;&lt;/div&gt;&lt;div style=&quot;font-size: 20px;&quot;&gt;&lt;span style=&quot;background-color: initial;&quot;&gt;}&lt;/span&gt;&lt;/div&gt;" style="text;html=1;align=center;verticalAlign=middle;whiteSpace=wrap;rounded=0;" vertex="1" parent="1">
          <mxGeometry x="50" y="270" width="610" height="180" as="geometry" />
        </mxCell>
        <mxCell id="q2QqDwBXJJ01Gyk50l-t-9" value="&lt;font style=&quot;font-size: 20px;&quot;&gt;5&lt;/font&gt;" style="ellipse;whiteSpace=wrap;html=1;aspect=fixed;" vertex="1" parent="1">
          <mxGeometry x="532" y="470" width="50" height="50" as="geometry" />
        </mxCell>
        <mxCell id="q2QqDwBXJJ01Gyk50l-t-10" value="&lt;font style=&quot;font-size: 20px;&quot;&gt;6&lt;/font&gt;" style="ellipse;whiteSpace=wrap;html=1;aspect=fixed;" vertex="1" parent="1">
          <mxGeometry x="650" y="470" width="50" height="50" as="geometry" />
        </mxCell>
        <mxCell id="q2QqDwBXJJ01Gyk50l-t-12" style="edgeStyle=orthogonalEdgeStyle;rounded=0;orthogonalLoop=1;jettySize=auto;html=1;exitX=1;exitY=0.5;exitDx=0;exitDy=0;entryX=0.5;entryY=0;entryDx=0;entryDy=0;elbow=vertical;curved=1;" edge="1" parent="1" source="q2QqDwBXJJ01Gyk50l-t-1" target="q2QqDwBXJJ01Gyk50l-t-1">
          <mxGeometry relative="1" as="geometry">
            <Array as="points">
              <mxPoint x="120" y="495" />
              <mxPoint x="120" y="450" />
              <mxPoint x="85" y="450" />
            </Array>
          </mxGeometry>
        </mxCell>
        <mxCell id="q2QqDwBXJJ01Gyk50l-t-13" style="edgeStyle=orthogonalEdgeStyle;rounded=0;orthogonalLoop=1;jettySize=auto;html=1;exitX=1;exitY=0.5;exitDx=0;exitDy=0;entryX=0.5;entryY=0;entryDx=0;entryDy=0;elbow=vertical;curved=1;" edge="1" parent="1">
          <mxGeometry relative="1" as="geometry">
            <mxPoint x="225" y="495" as="sourcePoint" />
            <mxPoint x="200" y="470" as="targetPoint" />
            <Array as="points">
              <mxPoint x="235" y="495" />
              <mxPoint x="235" y="450" />
              <mxPoint x="200" y="450" />
            </Array>
          </mxGeometry>
        </mxCell>
        <mxCell id="q2QqDwBXJJ01Gyk50l-t-14" style="edgeStyle=orthogonalEdgeStyle;rounded=0;orthogonalLoop=1;jettySize=auto;html=1;exitX=1;exitY=0.5;exitDx=0;exitDy=0;entryX=0.5;entryY=0;entryDx=0;entryDy=0;elbow=vertical;curved=1;" edge="1" parent="1">
          <mxGeometry relative="1" as="geometry">
            <mxPoint x="585" y="495" as="sourcePoint" />
            <mxPoint x="560" y="470" as="targetPoint" />
            <Array as="points">
              <mxPoint x="595" y="495" />
              <mxPoint x="595" y="450" />
              <mxPoint x="560" y="450" />
            </Array>
          </mxGeometry>
        </mxCell>
        <mxCell id="q2QqDwBXJJ01Gyk50l-t-15" style="edgeStyle=orthogonalEdgeStyle;rounded=0;orthogonalLoop=1;jettySize=auto;html=1;exitX=1;exitY=0.5;exitDx=0;exitDy=0;entryX=0.5;entryY=0;entryDx=0;entryDy=0;elbow=vertical;curved=1;" edge="1" parent="1">
          <mxGeometry relative="1" as="geometry">
            <mxPoint x="345" y="495" as="sourcePoint" />
            <mxPoint x="320" y="470" as="targetPoint" />
            <Array as="points">
              <mxPoint x="355" y="495" />
              <mxPoint x="355" y="450" />
              <mxPoint x="320" y="450" />
            </Array>
          </mxGeometry>
        </mxCell>
        <mxCell id="q2QqDwBXJJ01Gyk50l-t-16" style="edgeStyle=orthogonalEdgeStyle;rounded=0;orthogonalLoop=1;jettySize=auto;html=1;exitX=1;exitY=0.5;exitDx=0;exitDy=0;entryX=0.5;entryY=0;entryDx=0;entryDy=0;elbow=vertical;curved=1;" edge="1" parent="1">
          <mxGeometry relative="1" as="geometry">
            <mxPoint x="465" y="495" as="sourcePoint" />
            <mxPoint x="440" y="470" as="targetPoint" />
            <Array as="points">
              <mxPoint x="475" y="495" />
              <mxPoint x="475" y="450" />
              <mxPoint x="440" y="450" />
            </Array>
          </mxGeometry>
        </mxCell>
        <mxCell id="q2QqDwBXJJ01Gyk50l-t-17" style="edgeStyle=orthogonalEdgeStyle;rounded=0;orthogonalLoop=1;jettySize=auto;html=1;exitX=1;exitY=0.5;exitDx=0;exitDy=0;entryX=0.5;entryY=0;entryDx=0;entryDy=0;elbow=vertical;curved=1;" edge="1" parent="1">
          <mxGeometry relative="1" as="geometry">
            <mxPoint x="695" y="495" as="sourcePoint" />
            <mxPoint x="670" y="470" as="targetPoint" />
            <Array as="points">
              <mxPoint x="705" y="495" />
              <mxPoint x="705" y="450" />
              <mxPoint x="670" y="450" />
            </Array>
          </mxGeometry>
        </mxCell>
      </root>
    </mxGraphModel>
  </diagram>
</mxfile>
